<?xml version="1.0" encoding="utf-8"?>
<!-- Generator: Adobe Illustrator 17.0.0, SVG Export Plug-In . SVG Version: 6.00 Build 0)  -->
<!DOCTYPE svg PUBLIC "-//W3C//DTD SVG 1.1//EN" "http://www.w3.org/Graphics/SVG/1.1/DTD/svg11.dtd">
<svg version="1.1" id="Layer_1" xmlns="http://www.w3.org/2000/svg" xmlns:xlink="http://www.w3.org/1999/xlink" x="0px" y="0px"
	 width="160px" height="23px" viewBox="-19.5 -0.5 160 23" enable-background="new -19.5 -0.5 160 23" xml:space="preserve">
<g>
	<g>
		<path fill="#22B46A" d="M19.074,3.943c-3.849,0-6.986,3.139-6.986,6.986c0,3.891,3.137,7.029,6.986,7.029
			c3.891,0,7.029-3.139,7.029-7.029C26.104,7.082,22.965,3.943,19.074,3.943z M21.25,10.931c-1.213,0-2.175-0.962-2.175-2.134
			c0-1.171,0.962-2.134,2.175-2.134c1.171,0,2.134,0.962,2.134,2.134C23.383,9.968,22.421,10.931,21.25,10.931z"/>
		<path fill="#22B46A" d="M19.116-0.281c-7.438,0-13.852,5.971-16.948,9.026l0.011,0.013C-0.039,6.451-4.634,2.521-10.38,2.521
			c-5.564,0-9.12,3.682-9.12,7.74c0,4.017,3.557,7.698,9.12,7.698c7.914,0,12.509-4.811,12.509-4.811
			c4.644,5.271,10.334,9.037,16.987,9.037c11.839,0,18.535-11.338,18.535-11.338S29.576-0.281,19.116-0.281z M19.116,19.382
			c-7.253,0-12.032-4.941-15.122-8.56c2.804-2.719,8.848-8.3,15.122-8.3c6.945,0,13.053,6.276,15.061,8.493
			C32.463,13.273,27.106,19.382,19.116,19.382z"/>
	</g>
	
		<linearGradient id="SVGID_1_" gradientUnits="userSpaceOnUse" x1="327.0566" y1="-279.1893" x2="332.5178" y2="-274.2286" gradientTransform="matrix(1 0 0 -1 -336 -267)">
		<stop  offset="0" style="stop-color:#22B46A"/>
		<stop  offset="1" style="stop-color:#207F4B"/>
	</linearGradient>
	<path fill="url(#SVGID_1_)" d="M-10.179,5.178c-4.774,0-7.743,3.807-8.837,7.581c1.141,2.922,4.264,5.199,8.637,5.199
		c7.914,0,12.509-4.811,12.509-4.811C-1.672,9.059-4.309,5.178-10.179,5.178z"/>
	
		<linearGradient id="SVGID_2_" gradientUnits="userSpaceOnUse" x1="343.3637" y1="-273.4668" x2="339.6753" y2="-275.7125" gradientTransform="matrix(1 0 0 -1 -336 -267)">
		<stop  offset="0" style="stop-color:#22B46A"/>
		<stop  offset="1" style="stop-color:#207F4B"/>
	</linearGradient>
	<path fill="url(#SVGID_2_)" d="M3.994,10.822c1.465-1.417,3.873-3.654,6.603-5.391L7.901,3.836C5.467,5.545,3.535,7.42,2.179,8.756
		L3.994,10.822z"/>
</g>
<g>
	<path d="M45.24,17.495V5.903h2.362v9.544h4.435v2.049H45.24z M56.736,17.495V5.903h2.434v11.593H56.736z M65.461,17.495V5.903
		h4.073c2.29,0.048,4.386,0.723,4.386,3.085c0,1.326-0.94,2.073-2.024,2.506c1.591,0.337,2.29,1.205,2.29,2.555
		c0,2.362-2.169,3.446-4.218,3.446H65.461z M67.823,10.699h1.567c1.085-0.048,2.169-0.289,2.169-1.446
		c0-1.133-1.036-1.398-2.024-1.398h-1.711V10.699z M67.823,15.543h2.073c1.205-0.048,1.928-0.506,1.928-1.494
		c0-1.109-0.94-1.422-1.928-1.422h-2.073V15.543z M79.632,17.495V5.903h7.375v2.049h-4.941v2.723h3.856v1.952h-3.856v2.82h4.941
		v2.049H79.632z M92.936,17.495V5.903h3.663c2.41,0.121,4.579,0.892,4.579,3.374c0,1.494-0.916,2.844-2.29,3.278l3.278,4.941h-2.675
		l-2.747-4.362H95.37v4.362H92.936z M95.37,11.277h1.229c1.277-0.096,2.217-0.747,2.217-1.832c0-1.157-1.157-1.591-2.217-1.591
		H95.37V11.277z M107.276,17.495V5.903h7.375v2.049h-5.013v2.723h3.928v1.952h-3.928v2.82h5.013v2.049H107.276z M118.387,5.903
		h2.314l3.085,5.35l3.061-5.35h2.265l-4.145,7.158v4.435h-2.434v-4.435L118.387,5.903z M133.088,17.495V5.903h7.351v2.049h-4.989
		v2.699h3.928v2h-3.928v2.796h4.989v2.049H133.088z"/>
</g>
</svg>
