<?xml version="1.0" encoding="utf-8"?>
<!-- Generator: Adobe Illustrator 17.0.0, SVG Export Plug-In . SVG Version: 6.00 Build 0)  -->
<!DOCTYPE svg PUBLIC "-//W3C//DTD SVG 1.1//EN" "http://www.w3.org/Graphics/SVG/1.1/DTD/svg11.dtd">
<svg version="1.1" id="Layer_1" fill="#ffffff" xmlns="http://www.w3.org/2000/svg" xmlns:xlink="http://www.w3.org/1999/xlink" x="0px" y="0px"
	 width="160px" height="23px" viewBox="-19.5 -0.5 160 23" enable-background="new -19.5 -0.5 160 23" xml:space="preserve">
<g>
	<path d="M45.24,17.495V5.903h2.362v9.544h4.435v2.049H45.24z M56.736,17.495V5.903h2.434v11.593H56.736z M65.461,17.495V5.903
		h4.073c2.29,0.048,4.386,0.723,4.386,3.085c0,1.326-0.94,2.073-2.024,2.506c1.591,0.337,2.29,1.205,2.29,2.555
		c0,2.362-2.169,3.446-4.218,3.446H65.461z M67.823,10.699h1.567c1.085-0.048,2.169-0.289,2.169-1.446
		c0-1.133-1.036-1.398-2.024-1.398h-1.711V10.699z M67.823,15.543h2.073c1.205-0.048,1.928-0.506,1.928-1.494
		c0-1.109-0.94-1.422-1.928-1.422h-2.073V15.543z M79.632,17.495V5.903h7.375v2.049h-4.941v2.723h3.856v1.952h-3.856v2.82h4.941
		v2.049H79.632z M92.936,17.495V5.903h3.663c2.41,0.121,4.579,0.892,4.579,3.374c0,1.494-0.916,2.844-2.29,3.278l3.278,4.941h-2.675
		l-2.747-4.362H95.37v4.362H92.936z M95.37,11.277h1.229c1.277-0.096,2.217-0.747,2.217-1.832c0-1.157-1.157-1.591-2.217-1.591
		H95.37V11.277z M107.276,17.495V5.903h7.375v2.049h-5.013v2.723h3.928v1.952h-3.928v2.82h5.013v2.049H107.276z M118.387,5.903
		h2.314l3.085,5.35l3.061-5.35h2.265l-4.145,7.158v4.435h-2.434v-4.435L118.387,5.903z M133.088,17.495V5.903h7.351v2.049h-4.989
		v2.699h3.928v2h-3.928v2.796h4.989v2.049H133.088z"/>
</g>
<path d="M19.075,3.943c-3.849,0-6.987,3.138-6.987,6.987c0,3.891,3.138,7.029,6.987,7.029c3.891,0,7.029-3.138,7.029-7.029
	C26.103,7.081,22.966,3.943,19.075,3.943L19.075,3.943z M21.25,10.93c-1.213,0-2.176-0.962-2.176-2.134s0.962-2.134,2.176-2.134
	c1.171,0,2.134,0.962,2.134,2.134S22.422,10.93,21.25,10.93L21.25,10.93z M19.116-0.283c-6.652,0-12.677,4.895-15.773,7.949
	l2.05,1.925C8.197,6.872,13.552,2.52,19.116,2.52c6.945,0,13.053,6.276,15.062,8.493c-1.715,2.259-7.071,8.368-15.062,8.368
	c-7.782,0-12.719-5.69-15.773-9.33C2.088,8.545-3.267,2.52-10.379,2.52c-5.564,0-9.121,3.682-9.121,7.74
	c0,4.016,3.556,7.698,9.121,7.698c6.736,0,11.171-3.64,11.171-3.64c-2.176-2.301-4.895-7.782-10.878-9.33
	c4.644,0.042,8.368,3.598,12.217,8.158c4.644,5.272,10.334,9.037,16.986,9.037c11.84,0,18.534-11.338,18.534-11.338
	S29.576-0.283,19.116-0.283L19.116-0.283z"/>
</svg>
